<svg width="20" height="19" viewBox="0 0 20 19" fill="none" xmlns="http://www.w3.org/2000/svg">
<path d="M19.6376 3.13779L17.0641 1.10811C16.9844 1.04248 16.886 0.995605 16.7735 0.995605C16.661 0.995605 16.5579 1.04248 16.4782 1.11279L7.11726 13.1409C7.11726 13.1409 3.43757 9.60186 3.33445 9.49873C3.23132 9.39561 3.09539 9.22217 2.88914 9.22217C2.68289 9.22217 2.58914 9.36748 2.48132 9.47529C2.40164 9.55967 1.08914 10.9378 0.442261 11.6222C0.404761 11.6644 0.381323 11.6878 0.348511 11.7206C0.292261 11.8003 0.254761 11.8894 0.254761 11.9878C0.254761 12.0909 0.292261 12.1753 0.348511 12.255L0.479761 12.3769C0.479761 12.3769 7.00945 18.6487 7.11726 18.7565C7.22507 18.8644 7.35632 19.0003 7.54851 19.0003C7.73601 19.0003 7.8907 18.7987 7.97976 18.7097L19.6563 3.70967C19.7126 3.62998 19.7501 3.54092 19.7501 3.43779C19.7501 3.32061 19.7032 3.22217 19.6376 3.13779Z" fill="#E67E22"/>
</svg>
